<?xml version="1.0" encoding="utf-8"?>
<!-- Generator: Adobe Illustrator 16.0.0, SVG Export Plug-In . SVG Version: 6.00 Build 0)  -->
<!DOCTYPE svg PUBLIC "-//W3C//DTD SVG 1.1//EN" "http://www.w3.org/Graphics/SVG/1.1/DTD/svg11.dtd">
<svg version="1.1" id="Layer_1" xmlns="http://www.w3.org/2000/svg" xmlns:xlink="http://www.w3.org/1999/xlink" x="0px" y="0px"
	 width="179px" height="38px" viewBox="0 0 179 38" enable-background="new 0 0 179 38" xml:space="preserve">
<g>
	<path fill="#FFFFFF" d="M54.618,6.454c6.774,0,11.653,4.984,11.653,12.671c0,7.688-4.879,12.671-11.653,12.671
		C47.844,31.796,43,26.813,43,19.125C43,11.438,47.844,6.454,54.618,6.454z M54.618,27.479c4.107,0,6.774-3.193,6.774-8.354
		c0-4.633-2.667-8.354-6.774-8.354c-4.107,0-6.74,3.194-6.74,8.354S50.511,27.479,54.618,27.479z"/>
	<path fill="#FFFFFF" d="M70.542,31.41V11.578c0-2.597,2.141-4.739,4.773-4.739h4.071c6.916,0,11.339,4.072,11.339,12.286
		S86.302,31.41,79.386,31.41H70.542z M79.386,27.093c5.371,0,6.459-3.053,6.459-7.968c0-4.914-1.088-7.968-6.459-7.968h-2.983
		c-0.632,0-1.124,0.491-1.124,1.088v14.847L79.386,27.093L79.386,27.093z"/>
	<path fill="#FFFFFF" d="M94.994,11.578c0-2.597,2.107-4.739,4.738-4.739h12.285v4.283h-11.162c-0.597,0-1.123,0.492-1.123,1.088
		v4.212h9.091v4.107h-9.091v6.599h12.285v4.282H94.994V11.578z"/>
	<path fill="#FFFFFF" d="M129.409,18.071c2.247,1.3,3.651,3.054,3.651,6.213c0,2.071-0.948,4.001-2.423,5.229
		c-2.105,1.757-5.229,2.282-7.862,2.282c-2.526,0-4.914-0.492-7.301-1.264V26.04h0.562c1.93,0.737,4.177,1.438,6.774,1.438
		c1.895,0,5.58-0.49,5.545-3.123c-0.035-1.686-1.825-2.422-3.334-2.948c-1.86-0.632-3.44-1.089-5.23-1.966
		c-2.527-1.229-4.001-3.404-4.001-6.247c0-4.353,3.86-6.739,8.774-6.739c2.037,0,4.353,0.315,6.951,1.193v4.493h-0.597
		c-1.755-0.913-4.213-1.37-6.319-1.37c-1.824,0-4.106,0.387-4.106,2.317c0,1.861,2.422,2.562,4.037,3.124
		C126.109,16.738,127.865,17.265,129.409,18.071z"/>
	<path fill="#FFFFFF" d="M149.453,18.071c2.247,1.3,3.65,3.054,3.65,6.213c0,2.071-0.947,4.001-2.422,5.229
		c-2.105,1.757-5.229,2.282-7.863,2.282c-2.526,0-4.913-0.492-7.299-1.264V26.04h0.561c1.93,0.737,4.177,1.438,6.775,1.438
		c1.895,0,5.58-0.49,5.545-3.123c-0.034-1.686-1.825-2.422-3.334-2.948c-1.859-0.632-3.439-1.089-5.229-1.966
		c-2.528-1.229-4.002-3.404-4.002-6.247c0-4.353,3.861-6.739,8.774-6.739c2.037,0,4.354,0.315,6.951,1.193v4.493h-0.597
		c-1.755-0.913-4.212-1.37-6.317-1.37c-1.825,0-4.107,0.387-4.107,2.317c0,1.861,2.422,2.562,4.037,3.124
		C146.154,16.738,147.909,17.265,149.453,18.071z"/>
	<path fill="#FFFFFF" d="M163.354,8.734c0.491-1.333,1.861-2.175,3.266-2.175c1.474,0,2.736,0.876,3.229,2.175l8.601,22.676h-5.02
		l-2.105-5.723h-9.618l-2.143,5.723h-4.703L163.354,8.734z M166.584,12.526h-0.141l-3.229,8.986h6.601L166.584,12.526z"/>
</g>
<ellipse fill="#FFFFFF" cx="18.016" cy="19" rx="18" ry="18.013"/>
<g>
	<g>
		<path fill="#0DAEFE" d="M6.5,14.754c0-1.938,0.906-3.594,2.718-4.969s3.995-2.063,6.548-2.063h4.118
			c2.553,0,4.736,0.688,6.548,2.063s2.718,3.031,2.718,4.969v9.375c0,1.938-0.906,3.594-2.718,4.969s-3.995,2.063-6.548,2.063
			h-4.118c-2.553,0-4.736-0.688-6.548-2.063S6.5,26.066,6.5,24.129V14.754z M12.677,24.129c0,0.646,0.302,1.198,0.906,1.656
			c0.604,0.459,1.331,0.688,2.183,0.688h4.118c0.851,0,1.579-0.229,2.183-0.688c0.604-0.458,0.906-1.01,0.906-1.656v-9.375
			c0-0.646-0.302-1.198-0.906-1.656c-0.604-0.458-1.332-0.688-2.183-0.688h-4.118c-0.852,0-1.579,0.229-2.183,0.688
			c-0.604,0.458-0.906,1.011-0.906,1.656V24.129z"/>
	</g>
</g>
</svg>
