<?xml version="1.0" encoding="utf-8"?>
<!-- Generator: Adobe Illustrator 16.0.0, SVG Export Plug-In . SVG Version: 6.00 Build 0)  -->
<!DOCTYPE svg PUBLIC "-//W3C//DTD SVG 1.1//EN" "http://www.w3.org/Graphics/SVG/1.1/DTD/svg11.dtd">
<svg version="1.1" id="Layer_1" xmlns="http://www.w3.org/2000/svg" xmlns:xlink="http://www.w3.org/1999/xlink" x="0px" y="0px"
	 width="277px" height="54px" viewBox="0 0 277 54" enable-background="new 0 0 277 54" xml:space="preserve">
<g>
	<path fill="#FFFFFF" d="M85.42,6.999c10.481,0,18.03,7.71,18.03,19.604c0,11.892-7.549,19.604-18.03,19.604
		c-10.48,0-17.974-7.711-17.974-19.604C67.446,14.709,74.94,6.999,85.42,6.999z M85.42,39.525c6.354,0,10.481-4.94,10.481-12.923
		c0-7.168-4.126-12.925-10.481-12.925c-6.354,0-10.427,4.942-10.427,12.925S79.067,39.525,85.42,39.525z"/>
	<path fill="#FFFFFF" d="M110.056,45.607V14.926c0-4.019,3.312-7.332,7.385-7.332h6.299c10.699,0,17.541,6.3,17.541,19.008
		c0,12.707-6.841,19.005-17.541,19.005H110.056z M123.74,38.929c8.31,0,9.993-4.724,9.993-12.327s-1.684-12.328-9.993-12.328h-4.615
		c-0.978,0-1.738,0.761-1.738,1.685v22.97H123.74z"/>
	<path fill="#FFFFFF" d="M147.888,14.926c0-4.019,3.259-7.332,7.332-7.332h19.007v6.626h-17.27c-0.922,0-1.737,0.76-1.737,1.683
		v6.517h14.065v6.354H155.22v10.209h19.007v6.625h-26.339V14.926z"/>
	<path fill="#FFFFFF" d="M201.13,24.972c3.476,2.011,5.647,4.726,5.647,9.613c0,3.204-1.465,6.19-3.746,8.091
		c-3.26,2.715-8.092,3.53-12.164,3.53c-3.91,0-7.604-0.76-11.296-1.955V37.3h0.868c2.986,1.142,6.463,2.228,10.481,2.228
		c2.933,0,8.634-0.76,8.58-4.834c-0.054-2.605-2.823-3.746-5.159-4.561c-2.878-0.979-5.32-1.684-8.092-3.042
		c-3.909-1.9-6.189-5.267-6.189-9.665c0-6.734,5.973-10.426,13.575-10.426c3.149,0,6.733,0.488,10.753,1.845v6.952h-0.924
		c-2.715-1.413-6.517-2.119-9.775-2.119c-2.823,0-6.354,0.598-6.354,3.584c0,2.878,3.748,3.964,6.246,4.833
		C196.025,22.909,198.742,23.724,201.13,24.972z"/>
	<path fill="#FFFFFF" d="M232.143,24.972c3.476,2.011,5.646,4.726,5.646,9.613c0,3.204-1.466,6.19-3.746,8.091
		c-3.258,2.715-8.092,3.53-12.165,3.53c-3.91,0-7.603-0.76-11.295-1.955V37.3h0.868c2.986,1.142,6.462,2.228,10.48,2.228
		c2.933,0,8.635-0.76,8.579-4.834c-0.053-2.605-2.823-3.746-5.157-4.561c-2.879-0.979-5.322-1.684-8.092-3.042
		c-3.91-1.9-6.19-5.267-6.19-9.665c0-6.734,5.974-10.426,13.575-10.426c3.15,0,6.734,0.488,10.752,1.845v6.952h-0.922
		c-2.716-1.413-6.517-2.119-9.775-2.119c-2.824,0-6.354,0.598-6.354,3.584c0,2.878,3.747,3.964,6.245,4.833
		C227.038,22.909,229.753,23.724,232.143,24.972z"/>
	<path fill="#FFFFFF" d="M253.648,10.527c0.761-2.064,2.879-3.365,5.051-3.365c2.281,0,4.234,1.356,4.996,3.365L277,45.607h-7.766
		l-3.258-8.852h-14.879l-3.313,8.852h-7.276L253.648,10.527z M258.646,16.393h-0.218l-4.997,13.902h10.211L258.646,16.393z"/>
</g>
<circle fill="#FFFFFF" cx="27.159" cy="27.29" r="27.123"/>
<g>
	<g>
		<path fill="#0DAEFE" d="M10.38,20.345c0-2.871,1.342-5.325,4.027-7.361c2.686-2.038,5.919-3.057,9.702-3.057h6.101
			c3.783,0,7.017,1.019,9.702,3.057c2.685,2.037,4.027,4.49,4.027,7.361v13.889c0,2.871-1.342,5.325-4.027,7.362
			c-2.685,2.038-5.919,3.058-9.702,3.058h-6.101c-3.783,0-7.016-1.02-9.702-3.058c-2.685-2.037-4.027-4.491-4.027-7.362V20.345z
			 M19.532,34.234c0,0.959,0.447,1.776,1.343,2.455c0.895,0.681,1.972,1.018,3.234,1.018h6.101c1.261,0,2.34-0.337,3.235-1.018
			c0.895-0.679,1.342-1.496,1.342-2.455V20.345c0-0.958-0.448-1.775-1.342-2.453c-0.895-0.679-1.974-1.02-3.235-1.02h-6.101
			c-1.262,0-2.34,0.339-3.234,1.02c-0.896,0.678-1.343,1.498-1.343,2.453V34.234z"/>
	</g>
</g>
</svg>
